<?xml version="1.0" standalone="no"?>
<!DOCTYPE svg PUBLIC "-//W3C//DTD SVG 20010904//EN"
 "http://www.w3.org/TR/2001/REC-SVG-20010904/DTD/svg10.dtd">
<svg version="1.0" xmlns="http://www.w3.org/2000/svg"
 width="880.000000pt" height="880.000000pt" viewBox="0 0 880.000000 880.000000"
 preserveAspectRatio="xMidYMid meet">
<metadata>
Created by potrace 1.14, written by Peter Selinger 2001-2017
</metadata>
<g transform="translate(0.000000,880.000000) scale(0.100000,-0.100000)"
fill="#000000" stroke="none">
<path d="M8347 7304 c-2 -2 -21 -6 -43 -10 -21 -3 -41 -7 -44 -9 -3 -2 -79
-20 -170 -40 -91 -20 -173 -39 -182 -41 -10 -2 -28 -6 -40 -9 -13 -3 -39 -8
-58 -11 -19 -3 -38 -8 -43 -11 -4 -2 -20 -7 -35 -9 -15 -3 -43 -9 -62 -14 -19
-5 -46 -11 -60 -14 -21 -4 -72 -15 -142 -32 -20 -4 -52 -12 -83 -19 -11 -2
-29 -6 -40 -9 -57 -13 -303 -69 -323 -72 -12 -3 -62 -14 -110 -25 -48 -12 -96
-23 -107 -25 -11 -2 -32 -6 -47 -10 -15 -3 -30 -5 -33 -5 -2 0 -19 -5 -37 -10
-18 -6 -42 -12 -53 -14 -11 -3 -72 -16 -135 -30 -63 -15 -126 -28 -140 -31
-14 -3 -33 -7 -42 -10 -9 -3 -27 -7 -40 -9 -58 -11 -125 -28 -142 -37 -14 -8
-17 -7 -11 3 6 8 4 10 -5 4 -14 -8 -40 -15 -175 -46 -49 -11 -97 -21 -105 -24
-8 -2 -67 -15 -130 -29 -63 -14 -155 -35 -205 -47 -49 -11 -101 -23 -115 -25
-14 -3 -52 -11 -85 -19 -33 -8 -71 -17 -85 -19 -14 -3 -65 -15 -115 -27 -49
-11 -101 -23 -115 -25 -14 -3 -33 -7 -42 -10 -10 -3 -30 -7 -45 -10 -16 -3
-53 -11 -83 -19 -30 -8 -66 -16 -80 -19 -14 -2 -54 -11 -90 -20 -36 -8 -76
-17 -90 -20 -59 -13 -203 -45 -310 -70 -63 -15 -124 -28 -135 -30 -11 -3 -42
-10 -70 -16 -27 -6 -57 -13 -65 -15 -91 -21 -243 -56 -262 -59 -12 -3 -23 -5
-23 -6 0 -1 -11 -3 -23 -6 -13 -2 -74 -16 -135 -30 -62 -14 -121 -27 -132 -29
-36 -8 -70 -15 -90 -20 -11 -2 -96 -22 -190 -43 -137 -32 -298 -69 -425 -97
-8 -2 -44 -10 -80 -18 -357 -80 -377 -86 -421 -134 -52 -56 -71 -122 -55 -197
13 -67 19 -74 240 -279 60 -56 123 -115 140 -130 17 -16 75 -70 129 -120 126
-119 158 -149 307 -287 68 -63 138 -128 155 -145 18 -16 83 -77 145 -135 62
-58 130 -121 151 -140 150 -141 261 -243 298 -277 l45 -40 -125 -73 c-68 -40
-149 -88 -180 -106 -31 -19 -61 -34 -67 -34 -6 0 -12 -4 -14 -8 -1 -5 -46 -32
-98 -62 -52 -30 -97 -56 -100 -59 -3 -3 -23 -15 -45 -26 -22 -11 -44 -24 -50
-28 -21 -17 -457 -267 -465 -267 -5 0 -10 -4 -12 -8 -1 -4 -34 -26 -73 -47
-38 -22 -78 -44 -87 -50 -9 -5 -47 -28 -85 -50 -37 -22 -77 -45 -88 -52 -11
-7 -27 -16 -35 -20 -8 -4 -66 -38 -129 -75 -62 -37 -116 -68 -118 -68 -3 0
-17 -8 -31 -19 -15 -10 -48 -30 -73 -43 -78 -43 -93 -53 -107 -65 -7 -7 -18
-13 -23 -13 -5 0 -33 -16 -63 -35 -30 -19 -57 -35 -59 -35 -3 0 -45 -24 -94
-54 -49 -29 -109 -64 -133 -78 -25 -14 -178 -103 -340 -198 -162 -95 -313
-183 -335 -195 -22 -13 -96 -56 -165 -97 -69 -41 -132 -77 -140 -81 -8 -4 -33
-19 -55 -33 -22 -14 -52 -30 -68 -37 -15 -6 -27 -15 -27 -19 0 -4 -5 -8 -10
-8 -22 0 -140 -82 -173 -121 -59 -66 -82 -124 -83 -206 -1 -59 3 -81 25 -125
31 -63 91 -111 163 -133 69 -20 116 -19 218 6 47 11 93 22 102 24 9 2 63 15
120 29 57 15 112 28 123 30 11 3 92 23 180 45 88 22 171 42 185 44 14 3 32 8
40 11 8 3 26 8 40 11 14 2 52 11 85 20 33 8 73 17 89 20 16 3 32 8 36 10 3 2
17 6 31 9 34 7 49 11 189 46 69 17 136 33 150 36 14 3 52 12 85 21 33 8 67 16
75 18 8 2 51 13 95 24 44 12 92 24 107 26 15 2 72 16 125 30 54 14 108 28 121
30 12 3 31 7 42 10 11 3 28 7 38 9 9 3 82 21 162 41 80 20 154 38 165 40 11 1
20 3 20 4 0 2 11 5 24 7 14 2 52 12 85 20 34 9 68 17 76 19 8 2 35 8 60 15 25
7 52 13 60 15 8 2 33 8 55 14 22 5 54 13 72 16 18 3 45 10 60 16 15 6 28 10
28 9 0 -2 24 3 255 60 113 28 214 52 225 55 11 2 38 9 60 15 22 6 47 12 55 14
8 1 26 5 40 9 44 11 234 58 257 63 12 2 96 23 185 45 90 22 171 42 181 44 10
2 27 7 37 10 10 3 27 7 37 9 10 3 58 14 107 26 49 12 94 23 100 24 6 2 30 8
52 14 23 7 62 16 85 22 98 20 196 44 219 52 15 6 98 25 135 32 11 2 49 12 85
21 36 9 73 19 83 21 10 2 27 6 37 9 10 3 27 8 37 10 10 2 56 13 103 24 80 20
114 28 150 36 8 2 15 4 15 5 0 1 11 4 25 6 14 3 43 9 65 15 22 6 47 12 55 14
8 2 41 10 72 18 31 8 59 12 62 9 3 -3 6 -1 6 4 0 5 12 11 26 12 15 1 48 8 75
16 27 8 49 13 49 10 0 -3 8 0 18 5 9 5 31 11 47 14 17 3 40 8 53 11 12 3 31 8
42 11 11 3 29 7 40 10 11 3 28 7 38 9 9 2 94 23 187 46 94 23 177 44 185 45 8
2 89 22 180 45 90 22 173 42 185 45 11 2 20 4 20 5 0 2 16 5 55 13 141 27 222
145 190 278 -15 63 -37 86 -325 340 -100 88 -118 104 -145 129 -40 37 -166
149 -192 172 -20 16 -125 111 -194 173 -12 11 -50 45 -84 75 -35 30 -78 70
-97 88 -18 18 -33 31 -33 28 0 -2 -17 12 -38 32 -21 20 -68 64 -106 97 -67 59
-154 137 -205 184 -14 13 -55 49 -90 80 -36 31 -75 66 -88 78 -88 79 -167 149
-177 155 -14 9 -3 19 54 51 102 55 167 91 205 111 22 11 42 23 45 26 3 3 33
19 66 36 92 47 168 88 174 94 3 3 37 21 75 41 39 20 111 58 160 86 50 27 131
71 180 98 50 26 93 53 97 59 4 6 8 7 8 3 0 -8 60 22 70 34 3 4 21 14 40 23 46
20 159 83 177 97 7 6 13 8 13 5 0 -4 12 1 28 12 15 11 52 32 82 47 30 15 62
33 70 40 8 8 17 13 20 13 8 0 65 26 70 33 6 7 53 33 103 54 20 10 37 21 37 26
0 5 8 9 18 9 10 0 22 4 28 9 5 6 29 21 54 34 25 13 90 48 145 77 55 29 105 57
111 61 6 5 39 24 75 42 96 50 183 98 195 108 6 5 14 6 17 2 4 -3 7 -1 7 5 0 7
4 12 9 12 5 0 44 19 87 43 115 63 213 117 259 142 88 47 185 127 185 154 0 6
3 11 8 11 4 0 16 19 27 43 28 63 27 195 -3 262 -40 87 -131 158 -236 184 -42
10 -180 14 -189 5z"/>
</g>
</svg>
