<?xml version="1.0" encoding="UTF-8" standalone="no"?>
<!-- Created with Inkscape (http://www.inkscape.org/) -->

<svg
   width="82.391182mm"
   height="44.90258mm"
   viewBox="0 0 82.391182 44.90258"
   version="1.1"
   id="svg1"
   xmlns:xlink="http://www.w3.org/1999/xlink"
   xmlns="http://www.w3.org/2000/svg"
   xmlns:svg="http://www.w3.org/2000/svg">
  <defs
     id="defs1">
    <linearGradient
       id="linearGradient1">
      <stop
         style="stop-color:#000000;stop-opacity:1;"
         offset="0"
         id="stop1" />
      <stop
         style="stop-color:#ff0c0c;stop-opacity:1;"
         offset="1"
         id="stop3" />
    </linearGradient>
    <linearGradient
       xlink:href="#linearGradient1"
       id="linearGradient2"
       x1="34.621712"
       y1="20.5616"
       x2="61.6558"
       y2="46.961418"
       gradientUnits="userSpaceOnUse"
       gradientTransform="matrix(2.4277543,0.0641764,-0.05664069,2.4173483,-75.428012,-67.341969)" />
    <linearGradient
       xlink:href="#linearGradient1"
       id="linearGradient5"
       x1="-9.1605854"
       y1="-14.292192"
       x2="70.380905"
       y2="50.994503"
       gradientUnits="userSpaceOnUse"
       gradientTransform="matrix(2.5831282,0,0,2.5831282,-76.433159,-70.085327)" />
  </defs>
  <g
     id="layer1"
     transform="translate(-11.989189,-9.9131562)">
    <path
       id="path1-7-2"
       style="fill:#cccccc;stroke-width:1.12167"
       d="m -21.064453,28.511719 c -0.5366,-0.0015 -1.07411,0.112445 -1.601563,0.257812 a 0.4833103,0.4833103 0 0 0 -0.0332,-0.0098 L -61.25,37.490234 c -0.07832,-0.347371 -0.201877,-0.674303 -0.419922,-0.927734 -0.32655,-0.37955 -0.679933,-0.55103 -0.880859,-0.638672 -0.44056,-0.192167 -0.800995,-0.248229 -1.15625,-0.296875 -0.742855,-0.101738 -1.650334,-0.130859 -2.841797,-0.130859 -0.690516,0 -1.510275,0.04781 -2.509766,0.138672 -0.558906,0.05082 -1.048997,0.117025 -1.554687,0.283203 -0.243245,0.07992 -0.549284,0.197181 -0.875,0.439453 -0.352725,0.262333 -0.783644,0.740733 -0.91211,1.447265 -0.0048,0.0209 -0.01145,0.04146 -0.01563,0.0625 a 0.4833103,0.4833103 0 0 0 -0.0039,0.0293 l -0.43164,3.167969 -0.851563,-3.503906 a 0.4833103,0.4833103 0 0 0 0,-0.0059 c -0.01763,-0.06919 -0.03972,-0.138096 -0.06445,-0.205078 -0.285202,-0.798556 -0.898311,-1.186025 -1.269531,-1.363281 -0.374029,-0.178591 -0.710112,-0.256624 -1.021485,-0.3125 -0.640827,-0.11501 -1.339348,-0.142578 -2.199218,-0.142578 -0.862991,0 -1.565172,0.02958 -2.21875,0.154297 -0.319746,0.06103 -0.670636,0.149023 -1.052735,0.34375 -0.387748,0.197626 -0.979516,0.60847 -1.240234,1.390625 a 0.4833103,0.4833103 0 0 0 -0.0059,0.01953 c -0.01485,0.05224 -0.02839,0.104949 -0.03906,0.158203 l -0.744141,2.998047 -0.300781,-2.572266 -0.002,-0.02344 c -0.0017,-0.02028 -0.0036,-0.04033 -0.0059,-0.06055 a 0.4833103,0.4833103 0 0 0 -0.0039,-0.02344 c -0.169793,-1.075307 -0.990763,-1.604915 -1.449218,-1.816407 -0.447541,-0.206462 -0.855883,-0.288455 -1.269532,-0.355468 -0.848317,-0.137421 -1.869047,-0.181641 -3.18164,-0.181641 -1.171683,0 -2.052815,0.02047 -2.75586,0.09766 -0.339369,0.0373 -0.665311,0.07953 -1.064453,0.21875 -0.158503,0.05528 -0.502633,0.174651 -0.861328,0.507813 -0.249269,0.231533 -0.419137,0.542282 -0.542969,0.910156 -0.09154,0.271939 -0.0782,0.58948 -0.05664,0.902344 a 0.4833103,0.4833103 0 0 0 -0.06641,0.09375 l 3.38086,21.814453 a 0.4833103,0.4833103 0 0 0 0.002,0.002 c 0.0071,0.04453 0.01542,0.08884 0.02539,0.132812 0.284453,1.273846 1.334062,1.762351 1.953125,1.982422 0.642836,0.228516 1.324231,0.344138 2.130859,0.429688 a 0.4833103,0.4833103 0 0 0 0.01563,0.002 c 0.03389,0.0024 0.06759,0.0031 0.101562,0.0039 l 2.09961,0.101563 a 0.4833103,0.4833103 0 0 0 0.01172,0 c 0.02846,6.72e-4 0.05747,5.11e-4 0.08594,0 0.807997,0 1.6109,-0.0369 2.410156,-0.107422 a 0.4833103,0.4833103 0 0 0 0.0039,0 c 0.02217,-0.0022 0.04432,-0.0049 0.06641,-0.0078 0.802191,-0.09736 1.481896,-0.214985 2.123047,-0.453125 0.613297,-0.227806 1.647799,-0.719793 1.929687,-1.988281 l 0.335938,-1.238281 0.308593,1.251953 c 8e-6,3.6e-5 0.0035,0.0088 0.0039,0.0098 5.49e-4,0.0025 0.0033,0.0034 0.0039,0.0059 0.01712,0.0771 0.07043,0.120952 0.09375,0.193359 5.5e-4,6.05e-4 0.0013,0.0013 0.002,0.002 0.236711,0.732012 0.736655,1.258289 1.201172,1.533204 0.483619,0.286235 0.960201,0.424542 1.4375,0.527343 0.444923,0.09583 1.064587,0.09095 1.595703,0.13086 l -9.882812,5.769531 c -0.121448,0.07098 -0.234728,0.154564 -0.339844,0.248047 -0.365255,0.324584 -0.733915,0.72922 -0.966797,1.322265 -0.262113,0.66746 -0.273304,1.596957 0.25,2.353516 0.493812,0.713921 1.218866,0.98298 1.757812,1.064453 0.529802,0.08007 1.012671,0.01677 1.451172,-0.115234 l 42.523438,-10.425781 c 0.568716,0.09169 1.152118,0.15039 1.753906,0.15039 2.321772,0 4.451204,-0.70522 6.115234,-2.078125 l 2.205079,-0.542969 c 0.171138,0.359655 0.333423,0.722419 0.558593,1.035157 0.322823,0.448368 0.980918,1.257812 2.208985,1.257812 h 10.5 c 0.588384,0 1.127532,-0.229376 1.513671,-0.558594 0.348559,-0.297192 0.547013,-0.624838 0.671875,-0.882812 0.249569,-0.515628 0.33392,-0.985873 0.402344,-1.464844 0.119248,-0.834765 0.183594,-1.603087 0.183594,-2.324219 0,-0.846684 -0.02816,-1.532379 -0.177734,-2.197265 -0.07058,-0.313773 -0.174027,-0.704728 -0.462891,-1.132813 -0.347617,-0.515125 -1.036582,-1.050781 -1.933594,-1.050781 -0.04154,-0.0011 -0.08152,-0.0014 -0.123047,0 a 0.4833103,0.4833103 0 0 0 -0.01758,0 l -1.060547,0.07227 3.466797,-4.355469 a 0.4833103,0.4833103 0 0 0 0.01367,-0.08203 c 0.141482,-0.182648 0.301925,-0.371442 0.355469,-0.529297 0.07929,-0.233767 0.07855,-0.43841 0.07813,-0.435547 0.02974,-0.202674 0.02344,-0.349819 0.02344,-0.427734 0,-0.609931 -0.177623,-0.905633 -0.18164,-0.916016 -0.06333,-0.163665 -0.133431,-0.318853 -0.212891,-0.484375 -0.160214,-0.333793 -0.372097,-0.726778 -0.642578,-1.222656 -0.281608,-0.516281 -0.518211,-0.927003 -0.771484,-1.285157 -0.122913,-0.17382 -0.260588,-0.355776 -0.464844,-0.554687 -0.0361,-0.03515 -0.188262,-0.236229 -0.451172,-0.398438 -0.26291,-0.162208 -0.634872,-0.273437 -1.132812,-0.273437 h -10.462891 c -0.605809,0 -1.139985,0.243987 -1.507813,0.568359 -0.329231,0.290312 -0.505181,0.605353 -0.613281,0.828125 -0.224518,0.462711 -0.308281,0.875291 -0.375,1.289063 -0.037,0.229413 -0.02697,0.575495 -0.04687,0.841797 -0.185492,-0.312407 -0.365849,-0.628266 -0.61914,-0.910157 -1.111101,-1.236543 -2.540431,-2.069768 -4.136719,-2.52539 l 14.582031,-7.927735 0.01758,-0.0098 a 0.4833103,0.4833103 0 0 0 0.01953,-0.0078 c 0.660301,-0.366758 1.276769,-0.899199 1.628907,-1.699218 0.379673,-0.862583 0.315004,-1.975687 -0.289063,-2.792969 -0.550232,-0.744449 -1.308405,-1.136928 -2.08789,-1.25586 -0.194262,-0.02964 -0.389458,-0.04239 -0.587891,-0.04297 z m -41.806641,19.136718 0.0078,0.0078 c -0.01042,0.02683 -0.01518,0.05703 -0.02539,0.08398 z m 35.082032,3.791016 c 0.115555,0.02548 0.216268,0.07226 0.345703,0.07227 0.02201,3.11e-4 0.04244,3.96e-4 0.06445,0 a 0.4833103,0.4833103 0 0 0 0.0098,0 l 1.064454,-0.03711 -1.457032,1.699219 c 0.03426,-0.263291 0.109375,-0.472142 0.109375,-0.763672 0,-0.38872 -0.07538,-0.657524 -0.136718,-0.970703 z m -35.894532,0.652344 c -0.0021,0.109648 -0.02734,0.207683 -0.02734,0.318359 -10e-7,1.428583 0.208273,2.755249 0.582031,3.984375 l -1.5,0.875 z m -14.396484,8.251953 c 0.01233,0.0277 0.02723,0.06235 0.02734,0.0625 4.4e-5,6.1e-5 0.0059,0.0076 0.0078,0.0098 -8.61e-4,-0.0018 -0.01739,-0.03655 -0.03516,-0.07227 z"
       transform="translate(107.10833,-18.598547)" />
    <path
       id="path1-7"
       style="fill:#ffffff;stroke-width:1.12167"
       d="m 86.524574,10.492593 c -0.677422,-0.103351 -1.417615,0.01007 -2.149242,0.227031 l 0.10596,-0.03027 -44.690138,10.120616 a 1.6486624,1.6486624 0 0 0 -0.761822,2.815207 L 50.678636,34.482384 23.636513,50.268727 a 1.6486624,1.6486624 0 0 0 -0.262348,0.19172 c -0.34041,0.302505 -0.638888,0.629392 -0.837499,1.135164 -0.198617,0.505771 -0.204816,1.321461 0.196757,1.902029 0.401573,0.580569 0.979602,0.794209 1.432827,0.862724 0.453226,0.0685 0.852725,0.01602 1.241113,-0.100897 L 78.109233,41.338781 A 1.6486624,1.6486624 0 0 0 78.815556,38.50844 L 65.829282,26.909587 87.094684,15.346053 a 1.6486624,1.6486624 0 0 0 0.01524,-0.0052 c 0.601006,-0.333823 1.121349,-0.788466 1.422738,-1.473191 0.301389,-0.684726 0.239404,-1.665955 -0.237131,-2.310689 -0.47653,-0.644733 -1.093433,-0.961174 -1.770856,-1.064533 z" />
    <path
       style="fill:url(#linearGradient2);stroke-width:1.12167"
       d="M 40.386219,22.138146 53.655348,34.505264 24.697921,51.414158 c -0.856478,0.761113 -0.313174,1.224529 0.467533,0.989498 L 77.947083,39.458281 63.215978,26.302381 86.536552,13.618299 c 1.507245,-0.837179 0.743383,-2.250969 -1.461547,-1.597313 z"
       id="path1" />
    <path
       id="text1-6"
       style="font-size:12.7px;font-family:'Lilita One';-inkscape-font-specification:'Lilita One';text-align:justify;fill:#ffffff;stroke-width:1.36691"
       d="m 40.524726,17.437974 c -0.668023,0 -1.476203,0.04613 -2.467089,0.136209 -0.546045,0.04965 -0.99337,0.11296 -1.447965,0.262347 -0.227289,0.07468 -0.461865,0.163952 -0.736594,0.368298 -0.274729,0.204325 -0.626543,0.595483 -0.726505,1.145255 a 1.5716744,1.5716744 0 0 0 -0.01524,0.07062 l -0.776959,5.695999 -1.453009,-5.983576 a 1.5716744,1.5716744 0 0 0 -0.05045,-0.161446 c -0.230802,-0.646239 -0.700601,-0.935255 -1.024169,-1.089757 -0.323568,-0.154497 -0.600967,-0.219127 -0.898042,-0.272437 -0.594146,-0.106632 -1.265478,-0.136208 -2.113927,-0.136208 -0.851202,0 -1.524655,0.03097 -2.129063,0.146308 -0.302203,0.05768 -0.593427,0.12957 -0.923267,0.297664 -0.329837,0.16811 -0.790225,0.488831 -0.998942,1.114984 a 1.5716744,1.5716744 0 0 0 -0.03027,0.121071 L 23.340766,24.753447 22.7303,19.516558 a 1.5716744,1.5716744 0 0 0 -0.0052,-0.06559 C 22.588246,18.584267 21.9422,18.179082 21.549575,17.997959 21.15695,17.81683 20.806079,17.745199 20.404322,17.680112 19.600804,17.549949 18.602843,17.50353 17.301541,17.50353 c -1.165518,0 -2.035779,0.02247 -2.704212,0.09586 -0.334219,0.03673 -0.604941,0.07341 -0.958584,0.196756 -0.176815,0.06166 -0.389301,0.123216 -0.691188,0.403614 -0.301888,0.280409 -0.639368,1.062826 -0.479292,1.649772 l -0.03531,-0.171546 3.380266,21.815324 a 1.5716744,1.5716744 0 0 0 0.02015,0.100897 c 0.237545,1.068888 1.055257,1.425083 1.644727,1.634634 0.58947,0.209544 1.228732,0.319898 2.018069,0.403614 a 1.5716744,1.5716744 0 0 0 0.09082,0.0052 l 2.098791,0.100896 a 1.5716744,1.5716744 0 0 0 0.07569,0 c 0.79332,0 1.580466,-0.03663 2.366187,-0.105959 a 1.5716744,1.5716744 0 0 0 0.05045,-0.0052 c 0.789655,-0.0957 1.431826,-0.211093 2.018069,-0.428838 0.586244,-0.217757 1.387835,-0.574493 1.624545,-1.639682 l 0.82741,-3.057375 0.761821,3.077557 c 5.86e-4,0.0028 0.0044,0.0023 0.0052,0.0052 0.151062,0.69025 0.652204,1.172737 1.074623,1.422738 0.42409,0.251002 0.835766,0.37103 1.291564,0.469201 0.911591,0.196344 2.015669,0.262348 3.430717,0.262348 0.836381,0 1.828261,-0.08382 3.027103,-0.242168 0.64903,-0.08571 1.182665,-0.191074 1.695178,-0.388479 0.512511,-0.197403 1.229071,-0.516127 1.488324,-1.488324 a 1.5716744,1.5716744 0 0 0 0.02532,-0.121071 l 3.965504,-21.709377 c 0.104521,-0.498316 -0.109362,-1.140428 -0.378358,-1.453079 -0.26987,-0.313669 -0.512317,-0.424938 -0.706326,-0.509563 -0.388014,-0.169247 -0.678115,-0.214271 -1.029213,-0.262348 -0.702198,-0.09617 -1.591763,-0.126134 -2.774846,-0.126134 z m 12.466621,6.331692 c -2.66002,0 -5.031549,0.941981 -6.705033,2.774845 a 1.5716744,1.5716744 0 0 0 -0.01008,0.01007 c -1.663973,1.85184 -2.431775,4.381384 -2.431775,7.315502 0,2.934114 0.767802,5.46366 2.431775,7.315499 a 1.5716744,1.5716744 0 0 0 0.01008,0.01008 c 1.67466,1.834152 4.047291,2.7698 6.705033,2.7698 2.657742,0 5.029746,-0.937918 6.684854,-2.77989 0.775107,-0.86262 1.315259,-1.897765 1.715358,-3.027104 0.400098,1.129339 0.940251,2.164484 1.715359,3.027104 a 1.5716744,1.5716744 0 0 0 0.01009,0.01012 c 1.67466,1.834152 4.047292,2.7698 6.705034,2.7698 2.657742,0 5.025998,-0.93936 6.679809,-2.77989 0.510951,-0.56864 0.783145,-1.308833 1.130119,-1.99789 0.04275,0.116499 0.04998,0.304344 0.100897,0.44902 0.133263,0.378635 0.313447,0.839522 0.549924,1.402559 0.255472,0.608275 0.494533,1.09747 0.812273,1.538777 0.31774,0.441307 0.780133,1.059488 1.816262,1.059488 h 10.499003 c 0.444637,0 0.913425,-0.199004 1.200752,-0.443975 0.287326,-0.244984 0.440307,-0.500034 0.549922,-0.726505 0.21923,-0.452944 0.291304,-0.853514 0.358207,-1.321836 0.116861,-0.818058 0.18162,-1.563314 0.18162,-2.255192 0,-0.83536 -0.02983,-1.486301 -0.166482,-2.093747 -0.06832,-0.303721 -0.146825,-0.603072 -0.393525,-0.968673 -0.246714,-0.3656 -0.863872,-0.837499 -1.533732,-0.837499 a 1.5716744,1.5716744 0 0 0 -0.10596,0 l -2.154287,0.146308 4.147132,-5.211662 -0.121071,0.131171 c 0.494782,-0.494783 0.444541,-0.781239 0.469199,-0.948491 0.02454,-0.167258 0.02015,-0.263291 0.02015,-0.358208 0,-0.556067 -0.09392,-0.593243 -0.151345,-0.741642 -0.05742,-0.1484 -0.120555,-0.290284 -0.196757,-0.44902 -0.152379,-0.317469 -0.361018,-0.706434 -0.630647,-1.200751 -0.278312,-0.510238 -0.50689,-0.904108 -0.74164,-1.236066 -0.117377,-0.165992 -0.230363,-0.315751 -0.408658,-0.489381 -0.178314,-0.173638 -0.385623,-0.53479 -1.246158,-0.53479 H 80.02336 c -0.455509,0 -0.917191,0.212307 -1.185617,0.449022 -0.268423,0.236692 -0.400623,0.472346 -0.499471,0.676051 -0.197687,0.407414 -0.268237,0.753822 -0.332981,1.155346 -0.106735,0.661867 -0.127219,1.577782 -0.141271,2.578083 -0.37825,-0.855868 -0.747609,-1.717524 -1.362195,-2.401503 -1.652649,-1.839234 -4.019786,-2.784935 -6.679809,-2.784935 -2.66002,0 -5.031549,0.941981 -6.705034,2.774845 a 1.5716744,1.5716744 0 0 0 -0.01007,0.01007 c -0.775109,0.86262 -1.315262,1.897765 -1.71536,3.027104 -0.400102,-1.129335 -0.940255,-2.16448 -1.715361,-3.0271 -1.653943,-1.840675 -4.024831,-2.784935 -6.684854,-2.784935 z m 25.695063,8.35985 c 0.249195,0.177926 0.578642,0.358202 0.943447,0.358208 a 1.5716744,1.5716744 0 0 0 0.05549,0 l 2.16438,-0.07569 -3.254137,3.799017 c 0.131481,-0.771325 0.343073,-1.495815 0.343073,-2.34096 0,-0.62825 -0.179966,-1.152204 -0.252268,-1.740587 z m -25.730379,0.257305 c 0.06393,-0.105055 -0.147239,0 0.03531,0 0.201019,0 0.0059,-0.08894 0.07062,0.01524 0.0646,0.104074 0.232068,0.589539 0.232068,1.43283 -3e-6,0.843288 -0.171494,1.331882 -0.237131,1.437873 -0.06564,0.105985 0.133315,0.01524 -0.06559,0.01524 -0.18038,0 0.02965,0.101956 -0.03531,-0.0052 -0.06497,-0.106993 -0.232068,-0.601177 -0.232068,-1.447965 0,-0.846791 0.168135,-1.342914 0.232068,-1.447965 z m 16.830694,0 c 0.06393,-0.105055 -0.147238,0 0.03531,0 0.201019,0 0.0059,-0.08894 0.07062,0.01524 0.0646,0.104074 0.232069,0.589539 0.232069,1.43283 0,0.843288 -0.171494,1.331884 -0.237132,1.437873 -0.06564,0.105985 0.133316,0.01524 -0.06558,0.01524 -0.18038,0 0.02965,0.101956 -0.03531,-0.0052 -0.06497,-0.106993 -0.232068,-0.601177 -0.232068,-1.447965 0,-0.846791 0.168136,-1.342914 0.232068,-1.447965 z" />
    <path
       style="font-size:32.8057px;font-family:'Lilita One';-inkscape-font-specification:'Lilita One';text-align:justify;fill:url(#linearGradient5);stroke-width:1.36691"
       d="m 13.936899,19.415061 q -0.09842,-0.360862 3.313375,-0.360862 3.772655,0 3.871073,0.623308 l 1.607479,13.811199 3.477404,-13.975228 q 0.164028,-0.492085 2.558844,-0.492085 2.394816,0 2.558845,0.45928 l 3.411792,14.073644 1.902731,-13.942421 q 0.06561,-0.360863 1.509062,-0.492086 1.443451,-0.131223 2.329205,-0.131223 3.444598,0 3.346181,0.45928 L 39.8534,41.198045 q -0.131222,0.492086 -1.869924,0.721725 -1.738703,0.22964 -2.821291,0.22964 -4.067906,0 -4.26474,-0.918559 l -2.230788,-9.021567 -2.427622,8.988761 q -0.131222,0.590503 -2.296398,0.852948 -1.115394,0.09842 -2.230788,0.09842 l -2.099565,-0.09842 q -2.165176,-0.22964 -2.296398,-0.820142 z m 33.461783,20.700396 q -2.033953,-2.263593 -2.033953,-6.265888 0,-4.002296 2.033953,-6.265889 2.066759,-2.263593 5.544163,-2.263593 3.477404,0 5.511357,2.263593 2.033954,2.263593 2.033954,6.265889 0,4.002295 -2.033954,6.265888 -2.033953,2.263593 -5.511357,2.263593 -3.477404,0 -5.544163,-2.263593 z m 5.544163,-9.316818 q -1.837119,0 -1.837119,3.018124 0,3.018124 1.837119,3.018124 1.869925,0 1.869925,-3.018124 0,-3.018124 -1.869925,-3.018124 z m 11.285175,9.316818 q -2.033953,-2.263593 -2.033953,-6.265888 0,-4.002296 2.033953,-6.265889 2.066759,-2.263593 5.544163,-2.263593 3.477404,0 5.511357,2.263593 2.033954,2.263593 2.033954,6.265889 0,4.002295 -2.033954,6.265888 -2.033953,2.263593 -5.511357,2.263593 -3.477404,0 -5.544163,-2.263593 z m 5.544163,-9.316818 q -1.837119,0 -1.837119,3.018124 0,3.018124 1.837119,3.018124 1.869925,0 1.869925,-3.018124 0,-3.018124 -1.869925,-3.018124 z m 9.808926,0.09842 q -0.22964,0 -0.22964,-1.410645 0,-3.838267 0.623309,-3.838267 h 10.465017 q 0.22964,0 1.016977,1.443451 0.787337,1.443451 0.787337,1.640285 0,0.164028 -0.03281,0.196834 l -6.364305,8.00459 5.708191,-0.393668 q 0.524891,0 0.524891,2.329205 0,0.885753 -0.164028,2.033953 -0.164029,1.148199 -0.557697,1.148199 H 80.860532 q -0.492086,0 -1.181006,-1.640285 -0.688919,-1.640285 -0.688919,-1.968342 0,-0.360862 0.06561,-0.426474 l 6.265889,-7.31567 z"
       id="text1"
       aria-label="Wooz" />
  </g>
</svg>
