<?xml version="1.0" encoding="UTF-8" standalone="no"?>
<!-- Created with Inkscape (http://www.inkscape.org/) -->

<svg
   width="21.832048mm"
   height="21.821175mm"
   viewBox="0 0 21.832048 21.821175"
   version="1.1"
   id="svg1"
   xml:space="preserve"
   xmlns:inkscape="http://www.inkscape.org/namespaces/inkscape"
   xmlns:sodipodi="http://sodipodi.sourceforge.net/DTD/sodipodi-0.dtd"
   xmlns:xlink="http://www.w3.org/1999/xlink"
   xmlns="http://www.w3.org/2000/svg"
   xmlns:svg="http://www.w3.org/2000/svg"><sodipodi:namedview
     id="namedview1"
     pagecolor="#ffffff"
     bordercolor="#000000"
     borderopacity="0.25"
     inkscape:showpageshadow="2"
     inkscape:pageopacity="0.0"
     inkscape:pagecheckerboard="0"
     inkscape:deskcolor="#d1d1d1"
     inkscape:document-units="mm" /><defs
     id="defs1"><linearGradient
       id="linearGradient1"
       inkscape:collect="always"><stop
         style="stop-color:#000000;stop-opacity:1;"
         offset="0"
         id="stop1" /><stop
         style="stop-color:#ff0c0c;stop-opacity:1;"
         offset="1"
         id="stop3" /></linearGradient><linearGradient
       inkscape:collect="always"
       xlink:href="#linearGradient1"
       id="linearGradient9"
       x1="59.502892"
       y1="70.044205"
       x2="98.165756"
       y2="106.30095"
       gradientUnits="userSpaceOnUse" /><linearGradient
       inkscape:collect="always"
       xlink:href="#linearGradient1"
       id="linearGradient10"
       gradientUnits="userSpaceOnUse"
       x1="43.569748"
       y1="73.238266"
       x2="126.65425"
       y2="123.27686" /></defs><g
     inkscape:label="Layer 1"
     inkscape:groupmode="layer"
     id="layer1"
     transform="translate(-112.18161,-100.38641)"><g
       id="g4"
       transform="translate(8.4764869,-7.6702514)"
       style="fill:url(#linearGradient9)"><path
         id="path4"
         style="fill:url(#linearGradient10);stroke-width:0.181763"
         d="m 121.17999,126.09776 v -0.63616 h 0.59073 0.59073 v 0.63616 0.63617 h -0.59073 -0.59073 z m -1.04513,3.73824 c -0.92599,-0.089 -1.46995,-0.44437 -1.89492,-1.23781 -0.18365,-0.34286 -0.19535,-0.48997 -0.19535,-2.45498 0,-2.00481 0.009,-2.10784 0.21156,-2.51984 0.23804,-0.48332 0.6148,-0.8373 1.15166,-1.08203 0.3154,-0.14378 0.62216,-0.16591 2.31747,-0.16721 1.11446,-7.9e-4 2.10446,0.0403 2.30427,0.0958 0.44575,0.12377 1.0841,0.70951 1.33254,1.22271 0.18194,0.37584 0.1908,0.5121 0.16356,2.51455 -0.032,2.34977 -0.0427,2.39765 -0.67972,3.03469 -0.5411,0.54109 -0.79665,0.60489 -2.52992,0.63154 -0.84974,0.0131 -1.83126,-0.004 -2.18115,-0.0374 z m 3.86166,-1.45143 c 0.34063,-0.34062 0.39416,-0.74516 0.34783,-2.62858 -0.0541,-2.19941 0.004,-2.14542 -2.34643,-2.18774 -1.84594,-0.0332 -2.24269,0.0305 -2.5398,0.40825 -0.17508,0.22258 -0.18663,0.35791 -0.18663,2.18595 v 1.94868 l 0.26565,0.26566 0.26565,0.26565 h 1.96793 1.96793 z m -16.475,-20.3279 c -0.49045,-2.1e-4 -0.9814,0.007 -1.37109,0.0195 -0.19485,0.006 -0.36499,0.0124 -0.4961,0.0215 -0.1311,0.009 -0.22913,0.0232 -0.25195,0.0293 -0.79688,0.2121 -1.41486,0.83009 -1.62695,1.62696 -0.006,0.0238 -0.0203,0.12189 -0.0293,0.25195 -0.009,0.13106 -0.0154,0.30133 -0.0215,0.49609 -0.0122,0.38952 -0.0197,0.87894 -0.0195,1.36914 2.1e-4,0.49021 0.007,0.9804 0.0195,1.3711 0.006,0.19535 0.0142,0.36608 0.0234,0.49805 0.009,0.13196 0.0228,0.23273 0.0293,0.25781 0.0996,0.38221 0.25363,0.65277 0.55468,0.97461 0.48422,0.51763 0.9397,0.69531 1.8125,0.69531 h 0.57618 c 0.069,1.9e-4 0.1248,0.056 0.125,0.125 v 0.79492 0.66992 h 0.66992 0.66797 v -0.66601 -0.78906 c 1.5e-4,-0.0675 0.0537,-0.12271 0.12109,-0.125 l 0.69141,-0.0195 c 0.30401,-0.009 0.48183,-0.0173 0.60547,-0.0352 0.12363,-0.0179 0.19383,-0.0431 0.31054,-0.0937 0.57265,-0.24835 1.0113,-0.68594 1.26953,-1.26758 l 0.11133,-0.25 0.0156,-2.02148 c 0.0122,-1.78636 -7.4e-4,-2.07215 -0.0605,-2.2793 -0.22398,-0.77611 -0.83865,-1.38383 -1.59961,-1.58203 -0.025,-0.007 -0.1258,-0.0201 -0.25781,-0.0293 -0.13201,-0.009 -0.30261,-0.0172 -0.49805,-0.0234 -0.39088,-0.0126 -0.88064,-0.0193 -1.37109,-0.0195 z m 14.20508,0.006 c -1.02214,-3e-4 -1.568,0.005 -1.90625,0.0371 -0.33826,0.0325 -0.46246,0.0851 -0.69922,0.20508 -0.29039,0.14714 -0.7685,0.61649 -0.91602,0.89453 -0.14691,0.27693 -0.20959,0.39157 -0.24414,0.73828 -0.0346,0.34671 -0.0331,0.92253 -0.0254,2.05274 l 0.0137,2.02148 0.11133,0.25 c 0.17516,0.39445 0.43326,0.72349 0.75,0.96289 0.47607,0.35984 0.63634,0.40743 1.4375,0.43164 l 0.68945,0.0215 c 0.0674,0.002 0.12095,0.0575 0.1211,0.125 v 0.78906 0.66601 h 0.66992 0.66992 v -0.66992 -0.79492 c 1.9e-4,-0.069 0.056,-0.12481 0.125,-0.125 h 0.57617 c 0.38448,0 0.64576,-0.0285 0.79493,-0.0723 0.76075,-0.22346 1.37492,-0.8472 1.56836,-1.58984 0.007,-0.0264 0.0198,-0.12727 0.0293,-0.25977 0.009,-0.13249 0.017,-0.30239 0.0234,-0.49804 0.013,-0.3913 0.0211,-0.88267 0.0215,-1.37305 4.3e-4,-0.49038 -0.005,-0.98116 -0.0176,-1.37109 -0.006,-0.19497 -0.0142,-0.36466 -0.0234,-0.4961 -0.009,-0.13144 -0.0229,-0.23003 -0.0293,-0.2539 -0.21208,-0.79687 -0.83009,-1.41486 -1.62695,-1.62696 -0.15735,-0.0419 -0.62076,-0.064 -2.11328,-0.0644 z m -13.22656,1.29883 c 0.33298,0.003 0.55691,0.006 0.65234,0.0176 0.34303,0.0421 0.60564,0.21822 0.75391,0.51172 0.0528,0.10455 0.092,0.20381 0.10546,0.45507 0.0135,0.25127 0.0121,0.67766 0.0117,1.51758 -4.5e-4,0.77895 -0.003,1.20926 -0.0156,1.47266 -0.0123,0.26339 -0.0391,0.37689 -0.084,0.47461 -0.10956,0.23862 -0.25387,0.37873 -0.50195,0.48242 -0.19657,0.0821 -0.49674,0.082 -1.91992,0.082 -0.83417,0 -1.25939,2.2e-4 -1.50977,-0.0137 -0.25037,-0.0139 -0.34869,-0.0527 -0.45312,-0.10547 -0.2935,-0.14827 -0.46955,-0.41089 -0.51172,-0.75391 -0.0122,-0.097 -0.0133,-0.3194 -0.0156,-0.65234 -0.002,-0.33294 -0.002,-0.7595 0.002,-1.19727 0.007,-0.78244 0.0111,-1.17785 0.0273,-1.41015 0.0163,-0.23231 0.061,-0.32874 0.11523,-0.41602 0.0743,-0.11956 0.19709,-0.24464 0.31836,-0.32031 0.0875,-0.0544 0.18326,-0.099 0.41602,-0.11523 0.23276,-0.0163 0.62967,-0.0199 1.41211,-0.0273 0.43791,-0.004 0.86428,-0.005 1.19726,-0.002 z m 12.24414,0 c 0.33346,-0.003 0.75939,-0.002 1.19726,0.002 0.78244,0.007 1.17785,0.0111 1.41016,0.0273 0.2323,0.0163 0.32873,0.061 0.41601,0.11523 0.12097,0.0752 0.24708,0.19932 0.32227,0.32031 0.0543,0.0873 0.097,0.18372 0.11328,0.41602 0.0163,0.2323 0.0199,0.62771 0.0273,1.41015 0.004,0.43791 0.005,0.86429 0.002,1.19727 -0.003,0.33298 -0.006,0.55691 -0.0176,0.65234 -0.0421,0.34304 -0.21822,0.60565 -0.51172,0.75391 -0.10456,0.0528 -0.20381,0.092 -0.45508,0.10547 -0.25127,0.0135 -0.67765,0.0121 -1.51758,0.0117 -0.78067,-4.5e-4 -1.21166,-10e-4 -1.47461,-0.0137 -0.26294,-0.0123 -0.37494,-0.0408 -0.47265,-0.0859 -0.24891,-0.11488 -0.42229,-0.29734 -0.50391,-0.54102 -0.0193,-0.0573 -0.0222,-0.11045 -0.0293,-0.20312 -0.007,-0.0927 -0.013,-0.21471 -0.0176,-0.36914 -0.009,-0.30887 -0.0137,-0.74607 -0.0137,-1.31641 0,-0.82977 -2.2e-4,-1.25092 0.0137,-1.5 0.0139,-0.24908 0.0528,-0.34879 0.10547,-0.45312 0.14804,-0.29306 0.40887,-0.46954 0.75195,-0.51172 0.0964,-0.0121 0.32083,-0.0148 0.6543,-0.0176 z m -5.99805,0.29101 v 0.64649 0.77148 c -2e-4,0.069 -0.056,0.12481 -0.125,0.125 h -0.79492 -0.66992 v 0.66993 0.66992 h 0.66992 0.79492 c 0.069,1.9e-4 0.1248,0.056 0.125,0.125 v 0.79492 0.66992 h 0.66992 0.66992 v -2.23633 -2.23633 h -0.66992 z m -7.90039,1.54297 v 0.66993 0.66992 h 0.66992 0.66797 v -0.66992 -0.66993 h -0.66797 z m 14.21289,0 v 0.66993 0.66992 h 0.66992 0.66992 v -0.66992 -0.66993 h -0.66992 z m -9.44531,4.76953 v 0.64649 0.64648 h 2.23633 2.36132 c 0.069,1.9e-4 0.12481,0.056 0.125,0.125 v 0.79493 0.66992 h 0.64649 0.64648 v -1.44141 -1.44141 h -3.00781 z m -6.31055,1.54297 v 0.66993 0.66992 h 0.64648 0.64649 v -0.66992 -0.66993 h -0.64649 z m 3.13086,0 v 0.66993 0.66992 h 0.66992 0.66992 v -0.66992 -0.66993 h -0.66992 z m 14.21484,0 v 0.66993 0.66992 h 0.64649 0.64648 v -0.66992 -0.66993 h -0.64648 z m -15.80273,1.58985 v 0.66992 l -0.002,0.66992 h 0.66992 0.66992 v -0.66992 -0.66992 h -0.66797 z m 6.31055,0 v 0.66992 0.79297 c -2e-4,0.069 -0.056,0.12481 -0.125,0.125 h -0.77149 -0.64648 v 0.64648 0.64649 h 3.00781 3.00781 v -0.64649 -0.64648 h -1.44141 -1.5664 c -0.069,-1.9e-4 -0.12481,-0.056 -0.125,-0.125 v -0.79297 -0.66992 h -0.66992 z m 7.90234,0 v 0.66992 0.66992 h 0.66992 0.66992 v -0.66992 -0.66992 h -0.66992 z m -1.58985,1.58789 v 0.64648 0.64844 h 0.66993 0.66992 v -0.64648 -0.64844 h -0.66992 z m 3.17969,0.002 v 0.64649 0.64648 h 0.64649 0.64648 v -0.64648 -0.64649 h -0.64648 z m -15.00781,1.59789 c -1.78721,-0.0126 -2.07245,-0.001 -2.2793,0.0586 -0.77598,0.22396 -1.38581,0.84074 -1.58398,1.60156 -0.006,0.025 -0.0201,0.12585 -0.0293,0.25782 -0.009,0.13196 -0.0172,0.30269 -0.0234,0.49804 -0.0126,0.3907 -0.0193,0.88089 -0.0195,1.3711 -2.1e-4,0.4902 0.007,0.97962 0.0195,1.36914 0.006,0.19475 0.0124,0.36504 0.0215,0.49609 0.009,0.13105 0.0232,0.22912 0.0293,0.25195 0.20908,0.78556 0.82764,1.41063 1.60742,1.625 0.0548,0.0151 0.23522,0.0346 0.56836,0.0449 0.33314,0.0104 0.82582,0.0161 1.54297,0.0176 1.04554,0.002 1.6028,-0.002 1.94531,-0.0352 0.34252,-0.0336 0.46435,-0.0881 0.69922,-0.21485 0.31034,-0.16747 0.75536,-0.60749 0.90039,-0.88086 0.14689,-0.27688 0.20959,-0.39301 0.24414,-0.74023 0.0345,-0.34722 0.0331,-0.92253 0.0254,-2.05273 l -0.0137,-2.02149 -0.11133,-0.24805 c -0.25507,-0.57442 -0.74234,-1.06067 -1.2832,-1.28515 -0.12613,-0.0523 -0.16465,-0.0705 -0.45117,-0.0859 -0.28652,-0.0154 -0.80032,-0.0203 -1.8086,-0.0273 z m -0.13867,1.2832 c 1.42318,0 1.72335,-5e-5 1.91992,0.082 0.24809,0.10366 0.39239,0.2438 0.50195,0.48242 0.0446,0.0976 0.0716,0.21122 0.084,0.47461 0.0124,0.26339 0.0152,0.6937 0.0156,1.47266 5.1e-4,0.84028 0.002,1.26657 -0.0117,1.51758 -0.0135,0.251 -0.0526,0.3497 -0.10547,0.45312 -0.13494,0.26409 -0.33577,0.42321 -0.61328,0.48828 l -0.002,0.002 c 1e-5,6.7e-4 1e-5,0.001 0,0.002 -0.0587,0.0135 -0.11953,0.0129 -0.22656,0.0176 -0.10703,0.005 -0.24639,0.009 -0.4082,0.0117 -0.32362,0.006 -0.73427,0.01 -1.14649,0.01 -0.41221,2e-5 -0.82577,-0.004 -1.14843,-0.01 -0.16134,-0.003 -0.29992,-0.007 -0.40625,-0.0117 -0.10634,-0.005 -0.16446,-0.005 -0.22461,-0.0195 -0.24023,-0.0576 -0.44118,-0.20871 -0.57618,-0.42578 -0.0538,-0.0865 -0.0973,-0.18316 -0.11328,-0.41602 -0.016,-0.23286 -0.0199,-0.62917 -0.0273,-1.4082 -0.004,-0.43782 -0.004,-0.86432 -0.002,-1.19727 0.002,-0.33294 0.004,-0.55631 0.0156,-0.65234 0.0421,-0.34304 0.21823,-0.60565 0.51172,-0.75391 0.10441,-0.0527 0.20275,-0.0916 0.45313,-0.10547 0.25037,-0.0139 0.67559,-0.0137 1.50976,-0.0137 z m 5.6543,0.25 v 2.23633 2.23633 h 0.66992 0.66992 v -2.23633 -2.23633 h -0.66992 z m -6.31055,1.58984 v 0.66993 0.66992 h 0.66992 0.66797 v -0.66992 -0.66993 h -0.66797 z" /></g></g></svg>
