<?xml version="1.0" encoding="UTF-8" standalone="no"?>
<!-- Created with Inkscape (http://www.inkscape.org/) -->

<svg
   width="23.966665mm"
   height="23.951002mm"
   viewBox="0 0 23.966665 23.951002"
   version="1.1"
   id="svg1"
   xml:space="preserve"
   xmlns:inkscape="http://www.inkscape.org/namespaces/inkscape"
   xmlns:sodipodi="http://sodipodi.sourceforge.net/DTD/sodipodi-0.dtd"
   xmlns:xlink="http://www.w3.org/1999/xlink"
   xmlns="http://www.w3.org/2000/svg"
   xmlns:svg="http://www.w3.org/2000/svg"><sodipodi:namedview
     id="namedview1"
     pagecolor="#ffffff"
     bordercolor="#000000"
     borderopacity="0.25"
     inkscape:showpageshadow="2"
     inkscape:pageopacity="0.0"
     inkscape:pagecheckerboard="0"
     inkscape:deskcolor="#d1d1d1"
     inkscape:document-units="mm" /><defs
     id="defs1"><linearGradient
       id="linearGradient1"
       inkscape:collect="always"><stop
         style="stop-color:#000000;stop-opacity:1;"
         offset="0"
         id="stop1" /><stop
         style="stop-color:#ff0c0c;stop-opacity:1;"
         offset="1"
         id="stop3" /></linearGradient><linearGradient
       inkscape:collect="always"
       xlink:href="#linearGradient1"
       id="linearGradient7"
       x1="23.74028"
       y1="84.014221"
       x2="93.110611"
       y2="130.54375"
       gradientUnits="userSpaceOnUse" /></defs><g
     inkscape:label="Layer 1"
     inkscape:groupmode="layer"
     id="layer1"
     transform="translate(-71.105798,-98.683621)"><path
       id="path2"
       style="fill:url(#linearGradient7)"
       sodipodi:type="inkscape:offset"
       inkscape:radius="0.15016523"
       inkscape:original="M 84.898438 101.20508 C 84.441848 101.41687 84.051007 101.80688 83.835938 102.26562 C 83.690348 102.57607 83.669287 102.6988 83.679688 103.16602 C 83.686287 103.46348 83.700037 103.78496 83.710938 103.88086 C 83.729497 104.04506 83.462961 104.24457 79.150391 107.29297 L 74.568359 110.53125 L 74.378906 110.39062 C 73.683046 109.8717 72.842022 109.79428 72.070312 110.17969 L 71.794922 110.31836 L 69.982422 108.50586 L 68.169922 106.69141 L 68.306641 106.38477 C 68.669921 105.56351 68.441655 104.53691 67.765625 103.94336 C 66.690025 102.99897 65.043099 103.32375 64.412109 104.60547 C 64.233699 104.96792 64.206984 105.08641 64.208984 105.50977 C 64.210914 105.85046 64.252556 106.10307 64.347656 106.34766 L 64.484375 106.69727 L 62.945312 108.23633 L 61.408203 109.77539 L 61.148438 109.63672 C 60.932217 109.52142 60.782423 109.49851 60.251953 109.49805 C 59.702473 109.49757 59.573568 109.51834 59.298828 109.6543 C 58.90591 109.84875 58.497558 110.25862 58.300781 110.6582 C 58.174657 110.91432 58.153826 111.05652 58.154297 111.5957 C 58.15477 112.13776 58.175441 112.27401 58.300781 112.50977 C 58.524478 112.93054 58.921739 113.32379 59.320312 113.51953 C 59.632252 113.67272 59.754323 113.69582 60.251953 113.69531 C 60.752293 113.6948 60.86644 113.67375 61.15625 113.52148 C 61.6354 113.26974 61.888916 113.02174 62.134766 112.56836 C 62.335886 112.19741 62.351863 112.12688 62.351562 111.5957 C 62.351312 111.13457 62.323951 110.96315 62.207031 110.70898 L 62.060547 110.39258 L 63.585938 108.86914 L 65.109375 107.3457 L 65.449219 107.49805 C 65.725859 107.62222 65.894818 107.65 66.361328 107.65039 C 66.860978 107.6508 66.974373 107.62898 67.251953 107.48047 L 67.570312 107.31055 L 69.392578 109.12695 L 71.214844 110.94531 L 71.085938 111.23438 C 70.586637 112.36313 71.228494 113.75658 72.427734 114.14258 L 72.429688 114.14258 C 73.163988 114.37894 74.101736 114.11435 74.634766 113.52148 C 75.038666 113.07226 75.193097 112.61602 75.154297 111.97852 C 75.137297 111.69856 75.111809 111.42023 75.099609 111.36133 C 75.083209 111.28223 76.286893 110.40111 79.689453 107.99805 C 83.431793 105.35502 84.317084 104.7556 84.396484 104.8125 C 84.450304 104.85107 84.63752 104.96209 84.8125 105.05859 C 85.10013 105.21729 85.192308 105.23438 85.767578 105.23438 C 86.333668 105.23438 86.439299 105.21502 86.724609 105.06445 C 87.115639 104.8581 87.545296 104.40396 87.728516 104.00391 C 87.937496 103.5475 87.924269 102.74565 87.699219 102.26562 C 87.484149 101.80689 87.093309 101.41687 86.636719 101.20508 C 86.125079 100.96776 85.410077 100.96776 84.898438 101.20508 z M 86.230469 101.99219 C 87.198159 102.3958 87.309205 103.69195 86.421875 104.23633 C 85.999075 104.49572 85.406026 104.45395 84.978516 104.13477 C 84.733696 103.95198 84.525344 103.50923 84.527344 103.17188 C 84.531674 102.26497 85.416139 101.65254 86.230469 101.99219 z M 66.660156 104.33984 C 67.810276 104.63818 67.921679 106.23481 66.824219 106.69336 C 65.546989 107.22702 64.474473 105.61038 65.470703 104.65234 C 65.816673 104.31958 66.195366 104.21927 66.660156 104.33984 z M 85.736328 110.10156 C 83.573218 110.10156 83.52503 110.10313 83.40625 110.23438 C 83.28825 110.36472 83.285731 110.63641 83.269531 120.32031 L 83.251953 130.27148 L 82.554688 130.27148 L 81.855469 130.27148 L 81.839844 121.59375 C 81.823524 113.16136 81.818942 112.91138 81.701172 112.78125 C 81.582392 112.65033 81.536147 112.64648 79.373047 112.64648 C 77.209957 112.64648 77.163702 112.65001 77.044922 112.78125 C 76.927112 112.91138 76.92255 113.16136 76.90625 121.59375 L 76.888672 130.27148 L 76.191406 130.27148 L 75.494141 130.27148 L 75.476562 125.41016 C 75.459773 120.73262 75.454531 120.54488 75.337891 120.41602 C 75.219111 120.28511 75.172756 120.28125 73.009766 120.28125 C 70.846766 120.28125 70.800421 120.2848 70.681641 120.41602 C 70.564991 120.54488 70.559769 120.73262 70.542969 125.41016 L 70.525391 130.27148 L 69.828125 130.27148 L 69.130859 130.27148 L 69.113281 122.86523 C 69.096861 115.68439 69.094093 115.45602 68.976562 115.32617 C 68.857782 115.19525 68.809564 115.19141 66.646484 115.19141 C 64.483414 115.19141 64.437139 115.19493 64.318359 115.32617 C 64.200799 115.45602 64.196088 115.68439 64.179688 122.86523 L 64.164062 130.27148 L 63.46875 130.27148 L 62.771484 130.27148 L 62.753906 127.95508 C 62.736206 125.78185 62.727031 125.63147 62.613281 125.50586 C 62.494521 125.37501 62.447826 125.37305 60.285156 125.37305 C 58.122477 125.37305 58.073841 125.37472 57.955078 125.50586 C 57.841328 125.63147 57.834116 125.78185 57.816406 127.95508 L 57.796875 130.27148 L 57.416016 130.27148 C 57.095594 130.27148 57.008059 130.29662 56.876953 130.42773 C 56.721008 130.58367 56.720703 130.5858 56.720703 131.92578 C 56.720703 133.26575 56.721008 133.26788 56.876953 133.42383 L 57.033203 133.58008 L 73.009766 133.58008 L 88.986328 133.58008 L 89.142578 133.42383 C 89.298518 133.26788 89.298828 133.26575 89.298828 131.92578 C 89.298828 130.5858 89.298518 130.58367 89.142578 130.42773 C 89.011268 130.29645 88.924302 130.27148 88.601562 130.27148 L 88.21875 130.27148 L 88.201172 120.32031 C 88.184932 110.63641 88.182413 110.36472 88.064453 110.23438 C 87.945673 110.10346 87.899428 110.10156 85.736328 110.10156 z M 60.173828 110.32812 C 61.015801 110.28657 61.811594 111.15527 61.373047 112.10547 C 61.230887 112.41349 61.029264 112.60691 60.714844 112.73828 C 59.451204 113.26627 58.389782 111.67467 59.359375 110.70508 C 59.606102 110.45835 59.893171 110.34198 60.173828 110.32812 z M 72.638672 110.89453 C 73.064821 110.74821 73.571923 110.83073 73.939453 111.21289 C 74.580853 111.87982 74.365759 112.88884 73.505859 113.24805 C 72.638709 113.61027 71.724006 112.90304 71.816406 111.94141 C 71.866921 111.41571 72.212523 111.04085 72.638672 110.89453 z M 84.144531 110.99219 L 85.736328 110.99219 L 87.326172 110.99219 L 87.326172 120.63086 L 87.326172 130.27148 L 85.736328 130.27148 L 84.144531 130.27148 L 84.144531 120.63086 L 84.144531 110.99219 z M 77.78125 113.53711 L 79.373047 113.53711 L 80.962891 113.53711 L 80.962891 121.9043 L 80.962891 130.27148 L 79.373047 130.27148 L 77.78125 130.27148 L 77.78125 121.9043 L 77.78125 113.53711 z M 65.056641 116.08203 L 66.646484 116.08203 L 68.238281 116.08203 L 68.238281 123.17773 L 68.238281 130.27148 L 66.646484 130.27148 L 65.056641 130.27148 L 65.056641 123.17773 L 65.056641 116.08203 z M 71.419922 121.17188 L 73.009766 121.17188 L 74.601562 121.17188 L 74.601562 125.72266 L 74.601562 130.27148 L 73.009766 130.27148 L 71.419922 130.27148 L 71.419922 125.72266 L 71.419922 121.17188 z M 58.693359 126.26367 L 60.285156 126.26367 L 61.875 126.26367 L 61.875 128.26758 L 61.875 130.27148 L 60.285156 130.27148 L 58.693359 130.27148 L 58.693359 128.26758 L 58.693359 126.26367 z M 57.611328 131.16211 L 73.009766 131.16211 L 88.408203 131.16211 L 88.408203 131.92578 L 88.408203 132.68945 L 73.009766 132.68945 L 57.611328 132.68945 L 57.611328 131.92578 L 57.611328 131.16211 z "
       d="m 85.767578,100.87305 c -0.326142,0 -0.651599,0.0654 -0.931641,0.19531 -0.490752,0.22764 -0.905854,0.64038 -1.136718,1.13281 -0.149686,0.31919 -0.180437,0.49644 -0.169922,0.96875 0.0065,0.29407 0.01996,0.59091 0.0332,0.71485 -0.0035,0.006 -0.01959,0.0256 -0.05664,0.0625 -0.07782,0.0775 -0.24122,0.21319 -0.541015,0.4375 -0.599591,0.44861 -1.744178,1.261 -3.900391,2.78515 l -4.494141,3.17578 -0.101562,-0.0762 c -0.736603,-0.5493 -1.646928,-0.63309 -2.464844,-0.22461 a 0.15018025,0.15018025 0 0 0 -0.002,0 l -0.177734,0.0898 -1.736328,-1.73438 -1.738282,-1.74219 0.09375,-0.21289 c 0.391423,-0.88488 0.149821,-1.9761 -0.578125,-2.61523 -1.145535,-1.0058 -2.915609,-0.65661 -3.58789,0.70898 -0.181514,0.36876 -0.220781,0.5409 -0.21875,0.97071 0.002,0.3525 0.04605,0.62924 0.148437,0.89257 l 0.101563,0.25782 -1.46875,1.4707 -1.458985,1.45898 -0.162109,-0.0859 c -0.117171,-0.0625 -0.23108,-0.10638 -0.376953,-0.12891 -0.145873,-0.0225 -0.32246,-0.0271 -0.589844,-0.0273 -0.553284,-4.9e-4 -0.733505,0.0303 -1.019531,0.17187 -0.431031,0.21331 -0.851233,0.63533 -1.066406,1.07227 -0.132961,0.27 -0.162584,0.46083 -0.16211,1.0039 2.38e-4,0.27293 0.0059,0.44848 0.0293,0.59571 0.02343,0.14722 0.06807,0.26322 0.134766,0.38867 0.240084,0.45159 0.651371,0.8608 1.085937,1.07422 0.320492,0.15739 0.495745,0.19192 0.998047,0.1914 0.504528,-5.1e-4 0.675472,-0.0342 0.974609,-0.1914 0.495791,-0.26049 0.785484,-0.54244 1.041016,-1.01367 0.203333,-0.37504 0.234678,-0.51073 0.234375,-1.04493 -2.53e-4,-0.46705 -0.03429,-0.67984 -0.158203,-0.94922 l -0.103516,-0.22265 1.451172,-1.44922 1.451172,-1.44922 0.246094,0.10938 c 0.289845,0.13009 0.500215,0.16562 0.972656,0.16601 0.50404,4.1e-4 0.673753,-0.0339 0.960938,-0.1875 l 0.220703,-0.11719 1.74414,1.73633 1.748047,1.7461 -0.08594,0.19531 c -0.537057,1.2141 0.146944,2.69782 1.43164,3.11133 a 0.15018025,0.15018025 0 0 0 0.002,0 c 0.015,0.005 0.03175,0.003 0.04687,0.008 0.792475,0.23326 1.750487,-0.0424 2.316407,-0.67188 0.424974,-0.47265 0.599125,-0.98639 0.558593,-1.65234 -0.0086,-0.14151 -0.01913,-0.28094 -0.0293,-0.39453 -0.0072,-0.08 -0.01497,-0.1239 -0.02148,-0.17188 0.0011,-0.001 7.74e-4,-8.2e-4 0.002,-0.002 0.03189,-0.0305 0.08982,-0.0783 0.169922,-0.14258 0.160209,-0.12847 0.414116,-0.32126 0.775391,-0.58593 0.72255,-0.52935 1.873189,-1.34943 3.574219,-2.55079 1.87098,-1.32138 3.027814,-2.13191 3.724609,-2.60351 0.348397,-0.2358 0.583886,-0.38672 0.730469,-0.47266 0.06662,-0.0391 0.110182,-0.0616 0.138672,-0.0742 0.08847,0.0579 0.218312,0.1345 0.371093,0.21875 0.14776,0.0815 0.263909,0.13641 0.414063,0.16407 0.150154,0.0276 0.324159,0.0312 0.613281,0.0312 0.284757,0 0.458511,-0.004 0.609375,-0.0312 0.150864,-0.0269 0.270898,-0.0786 0.417969,-0.15625 0.431304,-0.22761 0.868,-0.68913 1.070312,-1.13086 0.237694,-0.51912 0.222076,-1.32906 -0.0293,-1.86524 -0.230865,-0.49242 -0.645964,-0.90517 -1.136718,-1.13281 -0.280042,-0.1299 -0.605499,-0.19531 -0.931641,-0.19531 z m -0.130859,1.17968 c 0.173594,-0.0203 0.355285,0.003 0.535156,0.0781 0.433019,0.18061 0.667827,0.55305 0.701172,0.94336 0.03334,0.39031 -0.133292,0.79025 -0.529297,1.0332 -0.363324,0.2229 -0.896195,0.18936 -1.275391,-0.0937 -0.1844,-0.13768 -0.392253,-0.56705 -0.390625,-0.84179 0.0029,-0.60721 0.438201,-1.05809 0.958985,-1.11915 z m -19.578125,2.41407 c 0.168989,-0.0445 0.35145,-0.0377 0.564453,0.0176 0.513179,0.13311 0.78203,0.54548 0.8125,0.98242 0.03047,0.43694 -0.180066,0.88321 -0.669922,1.08789 -0.575048,0.24027 -1.07673,-7.3e-4 -1.345703,-0.40625 -0.268973,-0.40553 -0.293994,-0.95757 0.154297,-1.38867 0.158689,-0.15263 0.315385,-0.24847 0.484375,-0.29297 z m 19.677734,5.48437 c -1.08159,0 -1.631832,2e-4 -1.939453,0.0176 -0.15381,0.009 -0.248112,0.0198 -0.328125,0.0469 -0.08001,0.0271 -0.140843,0.0807 -0.173828,0.11718 -0.02337,0.0258 -0.05585,0.0769 -0.07227,0.13282 -0.01642,0.0559 -0.0262,0.12232 -0.03516,0.2246 -0.01791,0.20458 -0.02839,0.55467 -0.03711,1.20313 -0.01744,1.29693 -0.02315,3.785 -0.03125,8.62695 l -0.01758,9.80078 h -0.546875 -0.548828 l -0.01563,-8.52734 c -0.0082,-4.21622 -0.0133,-6.38611 -0.03125,-7.52148 -0.009,-0.56769 -0.02078,-0.8766 -0.03906,-1.06055 -0.0091,-0.092 -0.02015,-0.15201 -0.03711,-0.20508 -0.01696,-0.0531 -0.04773,-0.102 -0.07031,-0.12695 -0.03271,-0.036 -0.09203,-0.0899 -0.171875,-0.11719 -0.07984,-0.0273 -0.174478,-0.0379 -0.328125,-0.0469 -0.307294,-0.0179 -0.857815,-0.0195 -1.939453,-0.0195 -1.081626,0 -1.632156,0.002 -1.939453,0.0195 -0.153649,0.009 -0.248236,0.0195 -0.328125,0.0469 -0.07989,0.0274 -0.139151,0.081 -0.171875,0.11719 -0.02259,0.025 -0.05334,0.0739 -0.07031,0.12695 -0.01697,0.0531 -0.02796,0.1131 -0.03711,0.20508 -0.01829,0.18395 -0.03009,0.49286 -0.03906,1.06055 -0.01794,1.13537 -0.0231,3.30527 -0.03125,7.52148 l -0.01758,8.52734 h -0.546875 -0.546875 l -0.01758,-4.71093 c -0.0084,-2.33882 -0.01314,-3.55494 -0.03125,-4.20703 -0.0091,-0.32605 -0.02155,-0.50934 -0.04102,-0.63282 -0.01947,-0.12347 -0.06451,-0.21061 -0.105468,-0.25586 -0.03271,-0.036 -0.09203,-0.0899 -0.171875,-0.11718 -0.07985,-0.0273 -0.174472,-0.0379 -0.328125,-0.0469 -0.307307,-0.0179 -0.85787,-0.0195 -1.939453,-0.0195 -1.081581,0 -1.632146,0.002 -1.939454,0.0195 -0.153653,0.009 -0.248234,0.0195 -0.328125,0.0469 -0.07989,0.0274 -0.139145,0.081 -0.171875,0.11718 -0.04096,0.0453 -0.086,0.13239 -0.105468,0.25586 -0.01947,0.12348 -0.03196,0.30677 -0.04102,0.63282 -0.01811,0.65209 -0.02285,1.86821 -0.03125,4.20703 L 70.375,130.12109 H 69.828125 69.28125 l -0.01758,-7.25586 c -0.0082,-3.59043 -0.01376,-5.44215 -0.03125,-6.41601 -0.0087,-0.48693 -0.01877,-0.75258 -0.03711,-0.91602 -0.0092,-0.0817 -0.01972,-0.13939 -0.03711,-0.18945 -0.01739,-0.0501 -0.04837,-0.0949 -0.07031,-0.11914 -0.03285,-0.0362 -0.09192,-0.0899 -0.171875,-0.11719 -0.07995,-0.0273 -0.176199,-0.0379 -0.330079,-0.0469 -0.307758,-0.0179 -0.857825,-0.0195 -1.939453,-0.0195 -1.081615,0 -1.632154,0.002 -1.939453,0.0195 -0.153649,0.009 -0.248234,0.0195 -0.328125,0.0469 -0.07989,0.0274 -0.139149,0.081 -0.171875,0.11719 -0.02188,0.0242 -0.05285,0.0691 -0.07031,0.11914 -0.01746,0.05 -0.02784,0.10576 -0.03711,0.1875 -0.01855,0.16348 -0.03007,0.43101 -0.03906,0.91797 -0.01798,0.97391 -0.02305,2.82557 -0.03125,6.41601 l -0.01563,7.25586 H 63.46875 62.919922 l -0.01563,-2.16796 c -0.0089,-1.0868 -0.01596,-1.66685 -0.03516,-2 -0.0096,-0.16658 -0.02105,-0.27138 -0.04297,-0.35547 -0.02192,-0.0841 -0.06379,-0.15165 -0.101563,-0.19336 -0.03285,-0.0362 -0.09396,-0.0901 -0.173828,-0.11719 -0.07987,-0.0271 -0.172568,-0.0382 -0.326172,-0.0469 -0.307207,-0.0174 -0.858073,-0.0176 -1.939453,-0.0176 -1.081377,0 -1.631781,1.8e-4 -1.939453,0.0176 -0.153836,0.009 -0.248109,0.0199 -0.328125,0.0469 -0.08002,0.027 -0.140821,0.0807 -0.173828,0.11719 -0.03791,0.0419 -0.07988,0.10927 -0.101563,0.19336 -0.02169,0.0841 -0.03362,0.1909 -0.04297,0.35742 -0.01869,0.33303 -0.02435,0.91129 -0.0332,1.99805 l -0.01758,2.16796 h -0.232421 c -0.164138,0 -0.278163,0.005 -0.382813,0.0352 -0.10465,0.0303 -0.187743,0.092 -0.261719,0.16602 -0.07818,0.0782 -0.158203,0.18865 -0.179687,0.39453 -0.02148,0.20587 -0.02148,0.53898 -0.02148,1.20898 0,0.67 0,1.00311 0.02148,1.20899 0.02148,0.20587 0.101508,0.31634 0.179687,0.39453 l 0.15625,0.15625 a 0.15018025,0.15018025 0 0 0 0.105469,0.0449 h 15.976563 15.976562 a 0.15018025,0.15018025 0 0 0 0.105469,-0.0449 l 0.15625,-0.15625 c 0.07818,-0.0782 0.158202,-0.18866 0.179687,-0.39453 0.02149,-0.20588 0.02148,-0.53899 0.02148,-1.20899 0,-0.67 10e-7,-1.00311 -0.02148,-1.20898 -0.02148,-0.20588 -0.101511,-0.31636 -0.179687,-0.39453 -0.07401,-0.074 -0.156849,-0.13576 -0.261719,-0.16602 -0.10487,-0.0303 -0.219523,-0.0352 -0.384766,-0.0352 h -0.232421 l -0.01758,-9.80078 c -0.0081,-4.84195 -0.01382,-7.33003 -0.03125,-8.62695 -0.0087,-0.64846 -0.0192,-0.99855 -0.03711,-1.20313 -0.009,-0.10228 -0.01874,-0.16867 -0.03516,-0.2246 -0.01641,-0.0559 -0.0489,-0.107 -0.07227,-0.13282 -0.03283,-0.0362 -0.09201,-0.0901 -0.171875,-0.11718 -0.07986,-0.0271 -0.174547,-0.0382 -0.328125,-0.0469 -0.307156,-0.0174 -0.85786,-0.0176 -1.939453,-0.0176 z m -25.554687,0.52735 c 0.367204,-0.0181 0.731249,0.16534 0.951171,0.45703 0.219923,0.29169 0.301011,0.67951 0.103516,1.10742 -0.129545,0.28069 -0.292966,0.43668 -0.580078,0.55664 -0.568493,0.23753 -1.064197,0.001 -1.332031,-0.40039 -0.267835,-0.40169 -0.295748,-0.9523 0.140625,-1.38867 0.222239,-0.22224 0.472459,-0.31997 0.716797,-0.33203 z m 12.796875,0.5 c 0.297759,-0.019 0.608131,0.0827 0.853515,0.33789 0.288659,0.30015 0.377454,0.66573 0.306641,0.99804 -0.07081,0.33232 -0.303492,0.63288 -0.691406,0.79493 -0.768348,0.32094 -1.563174,-0.29357 -1.480469,-1.1543 0.04493,-0.46755 0.345474,-0.78913 0.720703,-0.91797 0.09378,-0.0322 0.191762,-0.0523 0.291016,-0.0586 z m 11.316406,0.16406 h 1.441406 1.439453 v 9.48828 9.49023 h -1.439453 -1.441406 v -9.49023 z m -6.363281,2.54492 h 1.441406 1.439453 v 8.2168 8.21679 h -1.439453 -1.441406 v -8.21679 z m -12.72461,2.54492 h 1.439453 1.441407 v 6.94531 6.94336 h -1.441407 -1.439453 v -6.94336 z m 6.363281,5.08985 h 1.439454 1.441406 v 4.40039 4.39843 h -1.441406 -1.439454 v -4.39843 z m -12.726562,5.09179 h 1.441406 1.439453 v 1.85352 1.85351 H 60.285156 58.84375 v -1.85351 z m -1.082031,4.89844 h 15.248047 15.248046 v 0.61328 0.61328 H 73.009766 57.761719 v -0.61328 z"
       transform="matrix(0.72893742,0,0,0.72893742,29.869588,25.153485)" /></g></svg>
