<?xml version="1.0" encoding="UTF-8" standalone="no"?>
<!-- Created with Inkscape (http://www.inkscape.org/) -->

<svg
   width="29.037067mm"
   height="19.239161mm"
   viewBox="0 0 29.037067 19.239161"
   version="1.1"
   id="svg1"
   xml:space="preserve"
   xmlns:inkscape="http://www.inkscape.org/namespaces/inkscape"
   xmlns:sodipodi="http://sodipodi.sourceforge.net/DTD/sodipodi-0.dtd"
   xmlns:xlink="http://www.w3.org/1999/xlink"
   xmlns="http://www.w3.org/2000/svg"
   xmlns:svg="http://www.w3.org/2000/svg"><sodipodi:namedview
     id="namedview1"
     pagecolor="#ffffff"
     bordercolor="#000000"
     borderopacity="0.25"
     inkscape:showpageshadow="2"
     inkscape:pageopacity="0.0"
     inkscape:pagecheckerboard="0"
     inkscape:deskcolor="#d1d1d1"
     inkscape:document-units="mm" /><defs
     id="defs1"><linearGradient
       id="linearGradient1"
       inkscape:collect="always"><stop
         style="stop-color:#000000;stop-opacity:1;"
         offset="0"
         id="stop1" /><stop
         style="stop-color:#ff0c0c;stop-opacity:1;"
         offset="1"
         id="stop3" /></linearGradient><linearGradient
       inkscape:collect="always"
       xlink:href="#linearGradient1"
       id="linearGradient4"
       gradientUnits="userSpaceOnUse"
       gradientTransform="matrix(1.0630703,0.0281017,-0.02480195,1.0585137,-15.745168,70.068273)"
       x1="34.621712"
       y1="20.5616"
       x2="61.6558"
       y2="46.961418" /></defs><g
     inkscape:label="Layer 1"
     inkscape:groupmode="layer"
     id="layer1"
     transform="translate(-27.093814,-104.13363)"><g
       id="g10"><path
         id="path1-7-3"
         style="fill:#ffffff;stroke-width:0.491159"
         d="m 55.17098,104.15064 c -0.296631,-0.0453 -0.620748,0.004 -0.941114,0.0994 l 0.0464,-0.0133 -19.569014,4.43164 a 0.72191985,0.72191985 0 0 0 -0.333589,1.23273 l 5.101023,4.75417 -11.841263,6.91256 a 0.72191985,0.72191985 0 0 0 -0.114878,0.0839 c -0.149059,0.13246 -0.279757,0.2756 -0.366726,0.49707 -0.08697,0.22147 -0.08968,0.57864 0.08616,0.83286 0.175842,0.25422 0.428951,0.34777 0.62741,0.37777 0.198459,0.03 0.373393,0.007 0.543461,-0.0442 l 23.077209,-5.65773 a 0.72191985,0.72191985 0 0 0 0.309286,-1.23936 l -5.686458,-5.07893 9.31174,-5.06346 a 0.72191985,0.72191985 0 0 0 0.0067,-0.002 c 0.263169,-0.14618 0.491018,-0.34526 0.622991,-0.64509 0.131973,-0.29983 0.104831,-0.72949 -0.103835,-1.01181 -0.208664,-0.28231 -0.478795,-0.42088 -0.775427,-0.46614 z"
         inkscape:export-filename="path1-7.svg"
         inkscape:export-xdpi="96"
         inkscape:export-ydpi="96" /><path
         style="fill:url(#linearGradient4);stroke-width:0.491159"
         d="m 34.967818,109.25002 5.810315,5.41534 -12.679941,7.40411 c -0.375036,0.33327 -0.137133,0.5362 0.204725,0.43328 l 23.112133,-5.66855 -6.450488,-5.76073 10.211663,-5.55413 c 0.659996,-0.36659 0.325514,-0.98566 -0.639985,-0.69944 z"
         id="path1-75"
         sodipodi:nodetypes="ccccccccc" /></g></g></svg>
